<svg width="24" height="24" viewBox="0 0 24 24" fill="none" xmlns="http://www.w3.org/2000/svg">
<path d="M10.5376 20.1495C10.1044 20.1495 9.73514 19.9969 9.42981 19.6915C9.12448 19.3862 8.97181 19.017 8.97181 18.5838V15.6528C8.97181 15.2203 9.12448 14.8512 9.42981 14.5455C9.73514 14.2399 10.1044 14.087 10.5376 14.087H13.4686C13.9009 14.087 14.27 14.2399 14.5758 14.5455C14.8815 14.8512 15.0343 15.2203 15.0343 15.6528V18.5838C15.0343 19.017 14.8815 19.3862 14.5758 19.6915C14.27 19.9969 13.9009 20.1495 13.4686 20.1495H10.5376ZM10.6751 18.4463H13.3251V15.7963H10.6751V18.4463ZM2.54781 12.2338C2.35548 12.383 2.14631 12.4396 1.92031 12.4038C1.69448 12.3678 1.50581 12.2571 1.35431 12.0718C1.20514 11.8851 1.14773 11.6763 1.18206 11.4453C1.21656 11.2143 1.32998 11.0273 1.52231 10.8843L10.9746 3.6273C11.1292 3.5113 11.2941 3.4243 11.4691 3.3663C11.6442 3.3083 11.8212 3.2793 12.0001 3.2793C12.1789 3.2793 12.3559 3.3083 12.5311 3.3663C12.7061 3.4243 12.8709 3.5113 13.0256 3.6273L16.3543 6.1598V5.13055C16.3543 4.77538 16.4831 4.47221 16.7408 4.22105C16.9983 3.97005 17.3231 3.84455 17.7151 3.84455C18.0909 3.84455 18.4086 3.97605 18.6683 4.23905C18.9278 4.50205 19.0576 4.82113 19.0576 5.1963V8.2523L22.4968 10.8843C22.6813 11.0285 22.7886 11.2158 22.8186 11.4463C22.8486 11.6766 22.789 11.8851 22.6398 12.0718C22.4905 12.2585 22.3023 12.3694 22.0753 12.4045C21.8483 12.4399 21.6386 12.383 21.4463 12.2338L12.0001 4.9768L2.54781 12.2338Z" fill="#0D0A05"/>
</svg>
